ply
format ascii 1.0
comment : MagicaVoxel @ Ephtracy
element vertex 20
property float x
property float y
property float z
property uchar red
property uchar green
property uchar blue
end_header
-1 -1 0 102 0 0
0 -1 0 102 0 0
1 -1 0 102 0 0
-1 0 0 102 0 0
1 0 0 102 0 0
-1 1 0 102 0 0
0 1 0 102 0 0
1 1 0 102 0 0
-1 -1 1 102 0 0
1 -1 1 102 0 0
-1 1 1 102 0 0
1 1 1 102 0 0
-1 -1 2 102 0 0
0 -1 2 102 0 0
1 -1 2 102 0 0
-1 0 2 102 0 0
1 0 2 102 0 0
-1 1 2 102 0 0
0 1 2 102 0 0
1 1 2 102 0 0
